<svg width="18" height="20" viewBox="0 0 18 20" fill="none" xmlns="http://www.w3.org/2000/svg">
<g filter="url(#filter0_d_4022_5007)">
<path d="M9.00031 18.0624C8.55031 18.0624 8.10781 17.9574 7.74781 17.7549L4.20031 15.7074C2.73031 14.7174 2.63281 14.5374 2.63281 12.9849V9.26492C2.63281 7.71242 2.73031 7.53242 4.17031 6.56492L7.75531 4.49492C8.46781 4.08242 9.54031 4.08242 10.2528 4.49492L13.8003 6.54242C15.2703 7.53242 15.3678 7.71242 15.3678 9.26492V12.9849C15.3678 14.5374 15.2703 14.7174 13.8303 15.6849L10.2453 17.7549C9.89281 17.9649 9.44281 18.0624 9.00031 18.0624ZM9.00031 5.31242C8.74531 5.31242 8.49031 5.36492 8.31031 5.46992L4.76281 7.51742C3.75781 8.19992 3.75781 8.19992 3.75781 9.26492V12.9849C3.75781 14.0499 3.75781 14.0499 4.80031 14.7549L8.31781 16.7799C8.67781 16.9899 9.33031 16.9899 9.69031 16.7799L13.2378 14.7324C14.2428 14.0499 14.2428 14.0499 14.2428 12.9849V9.26492C14.2428 8.19992 14.2428 8.19992 13.2003 7.49492L9.68281 5.46992C9.51031 5.36492 9.25531 5.31242 9.00031 5.31242Z" fill="#FA541C"/>
<path d="M13.125 7.285C12.8175 7.285 12.5625 7.03 12.5625 6.7225V4.75C12.5625 3.565 12.06 3.0625 10.875 3.0625H7.125C5.94 3.0625 5.4375 3.565 5.4375 4.75V6.67C5.4375 6.9775 5.1825 7.2325 4.875 7.2325C4.5675 7.2325 4.3125 6.985 4.3125 6.67V4.75C4.3125 2.935 5.31 1.9375 7.125 1.9375H10.875C12.69 1.9375 13.6875 2.935 13.6875 4.75V6.7225C13.6875 7.03 13.4325 7.285 13.125 7.285Z" fill="#FA541C"/>
<path d="M10.2222 14.2223C10.0647 14.2223 9.89969 14.1923 9.73469 14.1248L8.99969 13.8398L8.26469 14.1323C7.86719 14.2898 7.46219 14.2523 7.16219 14.0348C6.86219 13.8173 6.70469 13.4423 6.72719 13.0148L6.77219 12.2273L6.26969 11.6198C5.99969 11.2823 5.90969 10.8923 6.02969 10.5323C6.14219 10.1798 6.44969 9.90984 6.86219 9.80484L7.62719 9.60984L8.05469 8.94234C8.51219 8.22234 9.49469 8.22234 9.95219 8.94234L10.3797 9.60984L11.1447 9.80484C11.5572 9.90984 11.8647 10.1798 11.9772 10.5323C12.0897 10.8848 11.9997 11.2823 11.7297 11.6123L11.2272 12.2198L11.2722 13.0073C11.2947 13.4348 11.1372 13.8023 10.8372 14.0273C10.6572 14.1548 10.4472 14.2223 10.2222 14.2223ZM7.13969 10.8998L7.64219 11.5073C7.81469 11.7098 7.91219 12.0323 7.89719 12.2948L7.85219 13.0823L8.58719 12.7898C8.83469 12.6923 9.16469 12.6923 9.41219 12.7898L10.1472 13.0823L10.1022 12.2948C10.0872 12.0323 10.1847 11.7173 10.3572 11.5073L10.8597 10.8998L10.0947 10.7048C9.83969 10.6373 9.56969 10.4423 9.42719 10.2248L9.00719 9.56484L8.57969 10.2248C8.43719 10.4498 8.16719 10.6448 7.91219 10.7123L7.13969 10.8998Z" fill="#FA541C"/>
</g>
<defs>
<filter id="filter0_d_4022_5007" x="-1" y="0" width="20" height="20" filterUnits="userSpaceOnUse" color-interpolation-filters="sRGB">
<feFlood flood-opacity="0" result="BackgroundImageFix"/>
<feColorMatrix in="SourceAlpha" type="matrix" values="0 0 0 0 0 0 0 0 0 0 0 0 0 0 0 0 0 0 127 0" result="hardAlpha"/>
<feOffset/>
<feGaussianBlur stdDeviation="0.5"/>
<feComposite in2="hardAlpha" operator="out"/>
<feColorMatrix type="matrix" values="0 0 0 0 0.980392 0 0 0 0 0.329412 0 0 0 0 0.109804 0 0 0 1 0"/>
<feBlend mode="normal" in2="BackgroundImageFix" result="effect1_dropShadow_4022_5007"/>
<feBlend mode="normal" in="SourceGraphic" in2="effect1_dropShadow_4022_5007" result="shape"/>
</filter>
</defs>
</svg>
