<svg width="18" height="20" viewBox="0 0 18 20" fill="none" xmlns="http://www.w3.org/2000/svg">
<g filter="url(#filter0_d_4022_5016)">
<path d="M7.49244 18.062C7.34244 18.062 7.22244 18.032 7.13244 17.9945C6.83244 17.882 6.32244 17.5145 6.32244 16.352V11.5145H4.56744C3.56244 11.5145 3.20244 11.042 3.07494 10.7645C2.94744 10.4795 2.83494 9.90199 3.49494 9.14449L9.17244 2.69449C9.93744 1.82449 10.5599 1.88449 10.8599 1.99699C11.1599 2.10949 11.6699 2.47699 11.6699 3.63949V8.47699H13.4249C14.4299 8.47699 14.7899 8.94949 14.9174 9.22699C15.0449 9.51199 15.1574 10.0895 14.4974 10.847L8.81994 17.297C8.28744 17.9045 7.82244 18.062 7.49244 18.062ZM10.4474 3.05449C10.4249 3.08449 10.2674 3.15949 10.0199 3.44449L4.34244 9.89449C4.13244 10.1345 4.10244 10.2845 4.10244 10.3145C4.11744 10.322 4.25244 10.397 4.56744 10.397H6.88494C7.19244 10.397 7.44744 10.652 7.44744 10.9595V16.3595C7.44744 16.7345 7.51494 16.8995 7.54494 16.9445C7.56744 16.9145 7.72494 16.8395 7.97244 16.5545L13.6499 10.1045C13.8599 9.86449 13.8899 9.71449 13.8899 9.68449C13.8749 9.67699 13.7399 9.60199 13.4249 9.60199H11.1074C10.7999 9.60199 10.5449 9.34699 10.5449 9.03949V3.63949C10.5524 3.26449 10.4774 3.10699 10.4474 3.05449Z" fill="#FA541C"/>
</g>
<defs>
<filter id="filter0_d_4022_5016" x="-1" y="0" width="20" height="20" filterUnits="userSpaceOnUse" color-interpolation-filters="sRGB">
<feFlood flood-opacity="0" result="BackgroundImageFix"/>
<feColorMatrix in="SourceAlpha" type="matrix" values="0 0 0 0 0 0 0 0 0 0 0 0 0 0 0 0 0 0 127 0" result="hardAlpha"/>
<feOffset/>
<feGaussianBlur stdDeviation="0.5"/>
<feComposite in2="hardAlpha" operator="out"/>
<feColorMatrix type="matrix" values="0 0 0 0 0.980392 0 0 0 0 0.329412 0 0 0 0 0.109804 0 0 0 1 0"/>
<feBlend mode="normal" in2="BackgroundImageFix" result="effect1_dropShadow_4022_5016"/>
<feBlend mode="normal" in="SourceGraphic" in2="effect1_dropShadow_4022_5016" result="shape"/>
</filter>
</defs>
</svg>
