<svg width="49" height="49" viewBox="0 0 49 49" fill="none" xmlns="http://www.w3.org/2000/svg">
<path d="M42.2186 17.2397L28.3586 6.1597C26.2186 4.4397 22.7586 4.4397 20.6386 6.1397L6.77858 17.2397C5.21858 18.4797 4.21858 21.0997 4.55858 23.0597L7.21858 38.9797C7.69858 41.8197 10.4186 44.1197 13.2986 44.1197H35.6986C38.5586 44.1197 41.2986 41.7997 41.7786 38.9797L44.4386 23.0597C44.7586 21.0997 43.7586 18.4797 42.2186 17.2397ZM24.4986 31.4997C21.7386 31.4997 19.4986 29.2597 19.4986 26.4997C19.4986 23.7397 21.7386 21.4997 24.4986 21.4997C27.2586 21.4997 29.4986 23.7397 29.4986 26.4997C29.4986 29.2597 27.2586 31.4997 24.4986 31.4997Z" fill="#2F5F8A"/>
</svg>
