<svg width="20" height="20" viewBox="0 0 20 20" fill="none" xmlns="http://www.w3.org/2000/svg">
<path d="M9.99844 11.8089C8.22344 11.8089 6.77344 10.3672 6.77344 8.58385C6.77344 6.80052 8.22344 5.36719 9.99844 5.36719C11.7734 5.36719 13.2234 6.80885 13.2234 8.59219C13.2234 10.3755 11.7734 11.8089 9.99844 11.8089ZM9.99844 6.61719C8.9151 6.61719 8.02344 7.50052 8.02344 8.59219C8.02344 9.68385 8.90677 10.5672 9.99844 10.5672C11.0901 10.5672 11.9734 9.68385 11.9734 8.59219C11.9734 7.50052 11.0818 6.61719 9.99844 6.61719Z" fill="#404040"/>
<path d="M10.0014 18.967C8.76803 18.967 7.52637 18.5003 6.5597 17.5753C4.10137 15.2087 1.3847 11.4337 2.4097 6.94199C3.3347 2.86699 6.89303 1.04199 10.0014 1.04199C10.0014 1.04199 10.0014 1.04199 10.0097 1.04199C13.118 1.04199 16.6764 2.86699 17.6014 6.95033C18.618 11.442 15.9014 15.2087 13.443 17.5753C12.4764 18.5003 11.2347 18.967 10.0014 18.967ZM10.0014 2.29199C7.57637 2.29199 4.4597 3.58366 3.6347 7.21699C2.7347 11.142 5.20137 14.5253 7.4347 16.667C8.87637 18.0587 11.1347 18.0587 12.5764 16.667C14.8014 14.5253 17.268 11.142 16.3847 7.21699C15.5514 3.58366 12.4264 2.29199 10.0014 2.29199Z" fill="#404040"/>
</svg>
