<svg width="151" height="32" viewBox="0 0 151 32" fill="none" xmlns="http://www.w3.org/2000/svg">
<g clip-path="url(#clip0_1010_36922)">
<path d="M9.08066 11.5071V16.1348H20.0182V22.9902H9.08066V31.6179H0.243164V4.66406H21.5557V11.5071H9.08066Z" fill="#F15827"/>
<path d="M32.5416 10.5469H24.0791V31.6176H32.5416V10.5469Z" fill="#F15827"/>
<path d="M33.4072 4.27077C33.4072 5.61231 32.9447 6.70769 32.0197 7.58154C31.0947 8.43077 29.8697 8.86154 28.3197 8.86154C26.7697 8.86154 25.5322 8.43077 24.6072 7.58154C23.6822 6.74461 23.2197 5.68615 23.2197 4.43077C23.2197 3.17538 23.6822 2.11692 24.6072 1.26769C25.5322 0.418461 26.7697 0 28.3197 0C29.8697 0 31.0947 0.393846 32.0197 1.19385C32.9447 1.99385 33.4072 3.01538 33.4072 4.27077Z" fill="#F15827"/>
<path d="M51.3932 30.8794C50.7432 31.2732 49.9557 31.5563 49.0307 31.7286C48.1307 31.9132 47.1807 31.9994 46.1807 31.9994C43.3682 31.9994 41.1682 31.3101 39.5932 29.9194C38.0182 28.504 37.2307 26.3501 37.2307 23.4455V18.0547H34.4307V11.704H37.2307V5.80859H45.6932V11.704H49.8932V18.0547H45.6932V23.3717C45.6932 24.0117 45.8557 24.5163 46.1807 24.8732C46.5307 25.2301 46.9557 25.4147 47.4557 25.4147C48.1807 25.4147 48.8182 25.2178 49.3682 24.8363L51.3932 30.8794Z" fill="#F15827"/>
<path d="M53.7822 31.6179V4.66406H62.6197V24.5779H74.4572V31.6302H53.7822V31.6179Z" fill="#F15726"/>
<path d="M94.3432 12.5909C92.4182 10.9786 89.7057 10.1663 86.1807 10.1663C84.5807 10.1663 82.9432 10.3755 81.2682 10.7816C79.6057 11.1878 78.1682 11.7786 76.9682 12.554L79.6682 18.2893C80.3432 17.7724 81.1432 17.3786 82.0932 17.0955C83.0432 16.7878 83.9807 16.6401 84.9057 16.6401C86.2807 16.6401 87.2682 16.9109 87.8682 17.4401C88.3432 17.8586 88.6432 18.4124 88.7432 19.1016H85.3557C83.2307 19.1016 81.4682 19.3478 80.0807 19.8278C78.7057 20.3201 77.6807 21.034 77.0057 21.994C76.3307 22.9416 75.9932 24.0986 75.9932 25.4524C75.9932 26.6586 76.2807 27.7663 76.8557 28.7632C77.4307 29.7355 78.2807 30.5232 79.4057 31.114C80.5307 31.7047 81.9182 32.0001 83.5932 32.0001C85.3682 32.0001 86.7807 31.6186 87.8307 30.8432C88.5057 30.3509 89.0307 29.6986 89.4057 28.8739V31.6186H97.2682V20.2955C97.2682 16.7755 96.2932 14.2155 94.3432 12.5909ZM87.7182 26.3016C87.2432 26.6093 86.7182 26.757 86.1432 26.757C85.5182 26.757 85.0182 26.6093 84.6432 26.3016C84.2932 25.9693 84.1182 25.5509 84.1182 25.0709C84.1182 24.4801 84.3182 24.037 84.7182 23.754C85.1432 23.4463 85.8057 23.2986 86.7057 23.2986H88.8057V24.7632C88.5807 25.4524 88.2182 25.9693 87.7182 26.3016Z" fill="#F15827"/>
<path d="M112.994 17.513C112.856 17.4884 112.719 17.4761 112.569 17.4761C111.994 17.4761 111.456 17.6238 110.956 17.9068C110.856 17.9561 110.756 18.0299 110.669 18.0914C110.881 17.5253 111.406 17.1191 112.019 17.1191C112.394 17.1191 112.744 17.2668 112.994 17.513Z" fill="#F15726"/>
<path d="M122.313 14.2152C121.588 12.8245 120.588 11.8029 119.313 11.1629C118.051 10.4983 116.626 10.166 115.051 10.166C113.376 10.166 111.851 10.5599 110.476 11.3599C109.888 11.7045 109.351 12.1352 108.876 12.6399V10.5476H100.813V31.6183H109.288C109.085 31.6183 109.844 31.6183 110.119 31.6183H113.779C114.229 31.6183 115.11 31.6183 114.976 31.6183H123.438V19.606C123.438 17.3906 123.063 15.5937 122.313 14.2152ZM116.238 28.7999C116.238 28.8737 116.238 28.9476 116.226 29.0214H107.601C107.601 28.9476 107.601 28.8737 107.601 28.7999V19.2245C107.601 18.5476 107.888 17.9076 108.388 17.4399L110.213 15.7414C111.176 14.8429 112.688 14.8429 113.651 15.7414L115.476 17.4399C115.976 17.9076 116.251 18.5476 116.251 19.2245V28.7999H116.238Z" fill="#F15827"/>
<path d="M141.781 3.03906V12.0114C141.531 11.7652 141.268 11.5437 140.993 11.3591C139.843 10.5591 138.368 10.1652 136.568 10.1652C134.768 10.1652 133.156 10.596 131.631 11.4698C130.131 12.3437 128.931 13.6114 128.031 15.2483C127.131 16.8606 126.681 18.8052 126.681 21.0575C126.681 23.3098 127.131 25.2791 128.031 26.916C128.931 28.5283 130.131 29.796 131.631 30.6945C133.156 31.5683 134.806 31.9991 136.568 31.9991C138.468 31.9991 139.981 31.6175 141.106 30.8421C141.506 30.5714 141.868 30.2514 142.193 29.8821V31.6175H150.243V3.03906H141.781ZM141.481 23.3714C141.181 23.9868 140.781 24.4545 140.281 24.7621C139.781 25.0698 139.218 25.2175 138.593 25.2175C137.968 25.2175 137.406 25.0698 136.906 24.7621C136.406 24.4545 136.006 23.9868 135.718 23.3714C135.418 22.7314 135.268 21.956 135.268 21.0575C135.268 20.1591 135.418 19.3837 135.718 18.7929C136.006 18.1775 136.406 17.7098 136.906 17.4021C137.406 17.0944 137.968 16.9468 138.593 16.9468C139.218 16.9468 139.781 17.0944 140.281 17.4021C140.781 17.7098 141.181 18.1775 141.481 18.7929C141.781 19.3837 141.931 20.1344 141.931 21.0575C141.931 21.9806 141.781 22.7314 141.481 23.3714Z" fill="#F15726"/>
<path d="M112.992 17.513C112.742 17.2668 112.392 17.1191 112.017 17.1191C111.404 17.1191 110.879 17.5253 110.667 18.0914C110.617 18.2514 110.579 18.4238 110.579 18.6084C110.579 19.4207 111.229 20.0976 112.017 20.0976C112.804 20.0976 113.467 19.4207 113.467 18.6084C113.467 18.1776 113.279 17.7838 112.992 17.513Z" fill="#EDEDEE" stroke="#F15726"/>
<path d="M113.467 18.6084C113.467 19.4207 112.817 20.0976 112.017 20.0976C111.217 20.0976 110.579 19.4207 110.579 18.6084C110.579 18.4238 110.617 18.2514 110.667 18.0914C110.879 17.5253 111.404 17.1191 112.017 17.1191C112.392 17.1191 112.742 17.2668 112.992 17.513C113.279 17.7838 113.467 18.1776 113.467 18.6084Z" fill="#F15726"/>
</g>
<defs>
<clipPath id="clip0_1010_36922">
<rect width="150" height="32" fill="white" transform="translate(0.243164)"/>
</clipPath>
</defs>
</svg>
