<svg width="20" height="20" viewBox="0 0 20 20" fill="none" xmlns="http://www.w3.org/2000/svg">
<path d="M14.537 12.8085C14.3786 12.8085 14.2203 12.7502 14.0953 12.6252C13.8536 12.3835 13.8536 11.9835 14.0953 11.7419L15.787 10.0502L14.0953 8.35853C13.8536 8.11686 13.8536 7.71686 14.0953 7.4752C14.337 7.23353 14.737 7.23353 14.9786 7.4752L17.112 9.60853C17.3536 9.85019 17.3536 10.2502 17.112 10.4919L14.9786 12.6252C14.8536 12.7502 14.6953 12.8085 14.537 12.8085Z" fill="#404040"/>
<path d="M16.6078 10.6748H8.13281C7.79115 10.6748 7.50781 10.3915 7.50781 10.0498C7.50781 9.70814 7.79115 9.4248 8.13281 9.4248H16.6078C16.9495 9.4248 17.2328 9.70814 17.2328 10.0498C17.2328 10.3915 16.9495 10.6748 16.6078 10.6748Z" fill="#404040"/>
<path d="M9.79948 17.2913C5.50781 17.2913 2.50781 14.2913 2.50781 9.99967C2.50781 5.70801 5.50781 2.70801 9.79948 2.70801C10.1411 2.70801 10.4245 2.99134 10.4245 3.33301C10.4245 3.67467 10.1411 3.95801 9.79948 3.95801C6.24115 3.95801 3.75781 6.44134 3.75781 9.99967C3.75781 13.558 6.24115 16.0413 9.79948 16.0413C10.1411 16.0413 10.4245 16.3247 10.4245 16.6663C10.4245 17.008 10.1411 17.2913 9.79948 17.2913Z" fill="#404040"/>
</svg>
