<svg width="20" height="20" viewBox="0 0 20 20" fill="none" xmlns="http://www.w3.org/2000/svg">
<path d="M9.9974 19.0087C9.4224 19.0087 8.88073 18.717 8.4974 18.2087L7.2474 16.542C7.2224 16.5087 7.1224 16.467 7.08073 16.4587H6.66406C3.18906 16.4587 1.03906 15.517 1.03906 10.8337V6.66699C1.03906 2.98366 2.98073 1.04199 6.66406 1.04199H13.3307C17.0141 1.04199 18.9557 2.98366 18.9557 6.66699V10.8337C18.9557 14.517 17.0141 16.4587 13.3307 16.4587H12.9141C12.8474 16.4587 12.7891 16.492 12.7474 16.542L11.4974 18.2087C11.1141 18.717 10.5724 19.0087 9.9974 19.0087ZM6.66406 2.29199C3.68073 2.29199 2.28906 3.68366 2.28906 6.66699V10.8337C2.28906 14.6003 3.58073 15.2087 6.66406 15.2087H7.08073C7.50573 15.2087 7.98906 15.4503 8.2474 15.792L9.4974 17.4587C9.78906 17.842 10.2057 17.842 10.4974 17.4587L11.7474 15.792C12.0224 15.4253 12.4557 15.2087 12.9141 15.2087H13.3307C16.3141 15.2087 17.7057 13.817 17.7057 10.8337V6.66699C17.7057 3.68366 16.3141 2.29199 13.3307 2.29199H6.66406Z" fill="#404040"/>
<path d="M9.9974 9.99967C9.53073 9.99967 9.16406 9.62467 9.16406 9.16634C9.16406 8.70801 9.53906 8.33301 9.9974 8.33301C10.4557 8.33301 10.8307 8.70801 10.8307 9.16634C10.8307 9.62467 10.4641 9.99967 9.9974 9.99967Z" fill="#404040"/>
<path d="M13.3333 9.99967C12.8667 9.99967 12.5 9.62467 12.5 9.16634C12.5 8.70801 12.875 8.33301 13.3333 8.33301C13.7917 8.33301 14.1667 8.70801 14.1667 9.16634C14.1667 9.62467 13.8 9.99967 13.3333 9.99967Z" fill="#404040"/>
<path d="M6.66927 9.99967C6.2026 9.99967 5.83594 9.62467 5.83594 9.16634C5.83594 8.70801 6.21094 8.33301 6.66927 8.33301C7.1276 8.33301 7.5026 8.70801 7.5026 9.16634C7.5026 9.62467 7.13594 9.99967 6.66927 9.99967Z" fill="#404040"/>
</svg>
