<svg width="20" height="20" viewBox="0 0 20 20" fill="none" xmlns="http://www.w3.org/2000/svg">
<path d="M13.3359 18.9587H6.66927C4.1526 18.9587 2.71094 17.517 2.71094 15.0003V6.87533C2.71094 4.25033 4.04427 2.91699 6.66927 2.91699C7.01094 2.91699 7.29427 3.20033 7.29427 3.54199C7.29427 3.87533 7.42761 4.19199 7.66094 4.42532C7.89427 4.65866 8.21094 4.79199 8.54427 4.79199H11.4609C12.1526 4.79199 12.7109 4.23366 12.7109 3.54199C12.7109 3.20033 12.9943 2.91699 13.3359 2.91699C15.9609 2.91699 17.2943 4.25033 17.2943 6.87533V15.0003C17.2943 17.517 15.8526 18.9587 13.3359 18.9587ZM6.12758 4.18366C4.81092 4.292 3.96094 4.88366 3.96094 6.87533V15.0003C3.96094 16.8503 4.81927 17.7087 6.66927 17.7087H13.3359C15.1859 17.7087 16.0443 16.8503 16.0443 15.0003V6.87533C16.0443 4.88366 15.1943 4.30033 13.8776 4.18366C13.5943 5.25033 12.6193 6.04199 11.4609 6.04199H8.54427C7.8776 6.04199 7.25261 5.78365 6.77761 5.30865C6.46094 4.99199 6.24425 4.60866 6.12758 4.18366Z" fill="#404040"/>
<path d="M11.4557 6.04199H8.53906C7.8724 6.04199 7.2474 5.78365 6.7724 5.30865C6.2974 4.83365 6.03906 4.20866 6.03906 3.54199C6.03906 2.16699 7.16406 1.04199 8.53906 1.04199H11.4557C12.1224 1.04199 12.7474 1.30033 13.2224 1.77533C13.6974 2.25033 13.9557 2.87533 13.9557 3.54199C13.9557 4.91699 12.8307 6.04199 11.4557 6.04199ZM8.53906 2.29199C7.8474 2.29199 7.28906 2.85033 7.28906 3.54199C7.28906 3.87533 7.4224 4.19199 7.65573 4.42532C7.88906 4.65866 8.20573 4.79199 8.53906 4.79199H11.4557C12.1474 4.79199 12.7057 4.23366 12.7057 3.54199C12.7057 3.20866 12.5724 2.89199 12.3391 2.65866C12.1057 2.42533 11.7891 2.29199 11.4557 2.29199H8.53906Z" fill="#404040"/>
<path d="M9.9974 11.458H6.66406C6.3224 11.458 6.03906 11.1747 6.03906 10.833C6.03906 10.4913 6.3224 10.208 6.66406 10.208H9.9974C10.3391 10.208 10.6224 10.4913 10.6224 10.833C10.6224 11.1747 10.3391 11.458 9.9974 11.458Z" fill="#404040"/>
<path d="M13.3307 14.792H6.66406C6.3224 14.792 6.03906 14.5087 6.03906 14.167C6.03906 13.8253 6.3224 13.542 6.66406 13.542H13.3307C13.6724 13.542 13.9557 13.8253 13.9557 14.167C13.9557 14.5087 13.6724 14.792 13.3307 14.792Z" fill="#404040"/>
</svg>
