<svg width="20" height="19" viewBox="0 0 20 19" fill="none" xmlns="http://www.w3.org/2000/svg">
<path d="M12.4974 1.66699H7.4974C3.33073 1.66699 1.66406 3.33366 1.66406 7.50033V12.5003C1.66406 15.6503 2.61406 17.3753 4.88073 18.017C5.06406 15.8503 7.28906 14.142 9.9974 14.142C12.7057 14.142 14.9307 15.8503 15.1141 18.017C17.3807 17.3753 18.3307 15.6503 18.3307 12.5003V7.50033C18.3307 3.33366 16.6641 1.66699 12.4974 1.66699ZM9.9974 11.8086C8.3474 11.8086 7.01406 10.467 7.01406 8.81701C7.01406 7.16701 8.3474 5.83366 9.9974 5.83366C11.6474 5.83366 12.9807 7.16701 12.9807 8.81701C12.9807 10.467 11.6474 11.8086 9.9974 11.8086Z" stroke="#194165" stroke-width="1.5" stroke-linecap="round" stroke-linejoin="round"/>
</svg>
