<svg width="24" height="24" viewBox="0 0 24 24" fill="none" xmlns="http://www.w3.org/2000/svg">
<path d="M20.6216 13.0703C20.2416 13.0703 19.9216 12.7803 19.8716 12.4003C19.6316 10.1403 18.4116 8.09035 16.5316 6.79035C16.1916 6.55035 16.1116 6.09035 16.3416 5.75035C16.5816 5.41035 17.0516 5.33035 17.3816 5.56035C19.6216 7.11035 21.0616 9.55035 21.3516 12.2403C21.3916 12.6503 21.1016 13.0203 20.6816 13.0703C20.6716 13.0703 20.6416 13.0703 20.6216 13.0703Z" fill="#2F5F8A"/>
<path d="M3.49186 13.1203C3.46186 13.1203 3.44186 13.1203 3.41186 13.1203C3.00186 13.0703 2.70186 12.7003 2.74186 12.2903C3.01186 9.60026 4.44186 7.17026 6.65186 5.60026C6.99186 5.36026 7.46186 5.44026 7.70186 5.78026C7.94186 6.12026 7.86186 6.59026 7.52186 6.83026C5.66186 8.14026 4.46186 10.1903 4.23186 12.4503C4.20186 12.8303 3.87186 13.1203 3.49186 13.1203Z" fill="#2F5F8A"/>
<path d="M12.06 22.61C10.58 22.61 9.16997 22.27 7.84997 21.61C7.47997 21.42 7.32997 20.97 7.51997 20.6C7.70997 20.23 8.15997 20.08 8.52997 20.27C10.69 21.36 13.29 21.38 15.47 20.33C15.84 20.15 16.29 20.31 16.47 20.68C16.65 21.05 16.49 21.5 16.12 21.68C14.84 22.3 13.48 22.61 12.06 22.61Z" fill="#2F5F8A"/>
<path d="M12.0613 8.43988C10.1113 8.43988 8.53125 6.85988 8.53125 4.90988C8.53125 2.95988 10.1113 1.37988 12.0613 1.37988C14.0113 1.37988 15.5913 2.95988 15.5913 4.90988C15.5913 6.85988 14.0013 8.43988 12.0613 8.43988ZM12.0613 2.88988C10.9413 2.88988 10.0312 3.79988 10.0312 4.91988C10.0312 6.03988 10.9413 6.94988 12.0613 6.94988C13.1813 6.94988 14.0913 6.03988 14.0913 4.91988C14.0913 3.79988 13.1713 2.88988 12.0613 2.88988Z" fill="#2F5F8A"/>
<path d="M4.83078 20.6704C2.88078 20.6704 1.30078 19.0904 1.30078 17.1404C1.30078 15.2004 2.88078 13.6104 4.83078 13.6104C6.78078 13.6104 8.36078 15.1904 8.36078 17.1404C8.36078 19.0804 6.78078 20.6704 4.83078 20.6704ZM4.83078 15.1104C3.71078 15.1104 2.80078 16.0204 2.80078 17.1404C2.80078 18.2604 3.71078 19.1704 4.83078 19.1704C5.95078 19.1704 6.86078 18.2604 6.86078 17.1404C6.86078 16.0204 5.95078 15.1104 4.83078 15.1104Z" fill="#2F5F8A"/>
<path d="M19.1706 20.6704C17.2206 20.6704 15.6406 19.0904 15.6406 17.1404C15.6406 15.2004 17.2206 13.6104 19.1706 13.6104C21.1206 13.6104 22.7006 15.1904 22.7006 17.1404C22.6906 19.0804 21.1106 20.6704 19.1706 20.6704ZM19.1706 15.1104C18.0506 15.1104 17.1406 16.0204 17.1406 17.1404C17.1406 18.2604 18.0506 19.1704 19.1706 19.1704C20.2906 19.1704 21.2006 18.2604 21.2006 17.1404C21.1906 16.0204 20.2906 15.1104 19.1706 15.1104Z" fill="#2F5F8A"/>
</svg>
