<svg width="24" height="24" viewBox="0 0 24 24" fill="none" xmlns="http://www.w3.org/2000/svg">
<path d="M11.7188 22.75H7.21875C3.06875 22.75 1.21875 20.9 1.21875 16.75V12.25C1.21875 8.1 3.06875 6.25 7.21875 6.25H11.7188C15.8687 6.25 17.7188 8.1 17.7188 12.25V16.75C17.7188 20.9 15.8687 22.75 11.7188 22.75ZM7.21875 7.75C3.89875 7.75 2.71875 8.93 2.71875 12.25V16.75C2.71875 20.07 3.89875 21.25 7.21875 21.25H11.7188C15.0387 21.25 16.2187 20.07 16.2187 16.75V12.25C16.2187 8.93 15.0387 7.75 11.7188 7.75H7.21875Z" fill="#404040"/>
<path d="M18.1188 13.75H16.9687C16.5587 13.75 16.2187 13.41 16.2187 13V12.25C16.2187 8.93 15.0387 7.75 11.7188 7.75H10.9688C10.5588 7.75 10.2188 7.41 10.2188 7V5.85C10.2188 2.67 11.6387 1.25 14.8187 1.25H18.1188C21.2988 1.25 22.7187 2.67 22.7187 5.85V9.15C22.7187 12.33 21.2988 13.75 18.1188 13.75ZM17.7187 12.25H18.1188C20.4688 12.25 21.2187 11.5 21.2187 9.15V5.85C21.2187 3.5 20.4688 2.75 18.1188 2.75H14.8187C12.4687 2.75 11.7188 3.5 11.7188 5.85V6.25C15.8688 6.25 17.7187 8.1 17.7187 12.25Z" fill="#404040"/>
</svg>
