<svg width="20" height="18" viewBox="0 0 20 18" fill="none" xmlns="http://www.w3.org/2000/svg">
<g filter="url(#filter0_d_4022_5023)">
<path d="M14.2451 17.0027C13.8476 17.0027 13.3376 16.8752 12.7001 16.5002L10.4576 15.1727C10.2251 15.0377 9.77509 15.0377 9.55009 15.1727L7.30009 16.5002C5.97259 17.2877 5.19259 16.9727 4.84009 16.7177C4.49509 16.4627 3.95509 15.8102 4.30759 14.3102L4.84009 12.0077C4.90009 11.7677 4.78009 11.3552 4.60009 11.1752L2.74009 9.31524C1.81009 8.38523 1.88509 7.59023 2.01259 7.20023C2.14009 6.81024 2.54509 6.12023 3.83509 5.90273L6.22759 5.50523C6.45259 5.46773 6.77509 5.22773 6.87259 5.02523L8.20009 2.37773C8.80009 1.17023 9.58759 0.990234 10.0001 0.990234C10.4126 0.990234 11.2001 1.17023 11.8001 2.37773L13.1201 5.01773C13.2251 5.22023 13.5476 5.46023 13.7726 5.49773L16.1651 5.89523C17.4626 6.11273 17.8676 6.80273 17.9876 7.19273C18.1076 7.58273 18.1826 8.37773 17.2601 9.30773L15.4001 11.1752C15.2201 11.3552 15.1076 11.7602 15.1601 12.0077L15.6926 14.3102C16.0376 15.8102 15.5051 16.4627 15.1601 16.7177C14.9726 16.8527 14.6726 17.0027 14.2451 17.0027ZM10.0001 13.9427C10.3676 13.9427 10.7351 14.0327 11.0276 14.2052L13.2701 15.5327C13.9226 15.9227 14.3351 15.9227 14.4926 15.8102C14.6501 15.6977 14.7626 15.3002 14.5976 14.5652L14.0651 12.2627C13.9226 11.6402 14.1551 10.8377 14.6051 10.3802L16.4651 8.52023C16.8326 8.15273 16.9976 7.79274 16.9226 7.54523C16.8401 7.29773 16.4951 7.09523 15.9851 7.01273L13.5926 6.61523C13.0151 6.51773 12.3851 6.05273 12.1226 5.52773L10.8026 2.88773C10.5626 2.40773 10.2626 2.12273 10.0001 2.12273C9.73759 2.12273 9.43759 2.40773 9.20509 2.88773L7.87759 5.52773C7.61509 6.05273 6.98509 6.51773 6.40759 6.61523L4.02259 7.01273C3.51259 7.09523 3.16759 7.29773 3.08509 7.54523C3.00259 7.79274 3.17509 8.16023 3.54259 8.52023L5.40259 10.3802C5.85259 10.8302 6.08509 11.6402 5.94259 12.2627L5.41009 14.5652C5.23759 15.3077 5.35759 15.6977 5.51509 15.8102C5.67259 15.9227 6.07759 15.9152 6.73759 15.5327L8.98009 14.2052C9.26509 14.0327 9.63259 13.9427 10.0001 13.9427Z" fill="#FA541C"/>
</g>
<defs>
<filter id="filter0_d_4022_5023" x="0" y="-1" width="20" height="20" filterUnits="userSpaceOnUse" color-interpolation-filters="sRGB">
<feFlood flood-opacity="0" result="BackgroundImageFix"/>
<feColorMatrix in="SourceAlpha" type="matrix" values="0 0 0 0 0 0 0 0 0 0 0 0 0 0 0 0 0 0 127 0" result="hardAlpha"/>
<feOffset/>
<feGaussianBlur stdDeviation="0.5"/>
<feComposite in2="hardAlpha" operator="out"/>
<feColorMatrix type="matrix" values="0 0 0 0 0.980392 0 0 0 0 0.329412 0 0 0 0 0.109804 0 0 0 1 0"/>
<feBlend mode="normal" in2="BackgroundImageFix" result="effect1_dropShadow_4022_5023"/>
<feBlend mode="normal" in="SourceGraphic" in2="effect1_dropShadow_4022_5023" result="shape"/>
</filter>
</defs>
</svg>
