<svg width="26" height="21" viewBox="0 0 26 21" fill="none" xmlns="http://www.w3.org/2000/svg">
<path d="M1.093 9.63616C1.14943 9.60737 1.20586 9.58089 1.26229 9.55555C2.22394 9.10987 3.19826 8.69297 4.17142 8.27608C4.2244 8.27608 4.31307 8.2162 4.36144 8.19432C4.4363 8.16207 4.51115 8.12981 4.58716 8.09757C4.73112 8.03538 4.87623 7.97434 5.02019 7.91216C5.30926 7.78893 5.59718 7.66456 5.88625 7.54133C6.46324 7.29488 7.04139 7.04727 7.61838 6.79966C8.77351 6.30561 9.92865 5.81156 11.0838 5.3175C12.2389 4.82345 13.394 4.32939 14.5492 3.83534C15.7043 3.34128 16.8594 2.84723 18.0146 2.35317C19.1697 1.85912 20.3248 1.36507 21.48 0.871011C21.7368 0.761605 22.0155 0.595775 22.2896 0.547406C22.521 0.507099 22.7468 0.426478 22.9783 0.382715C23.4194 0.298645 23.9065 0.264103 24.3292 0.447214C24.4755 0.510554 24.6091 0.600374 24.7231 0.712083C25.2586 1.24299 25.1837 2.11364 25.0709 2.8599C24.2808 8.06072 23.4908 13.2604 22.6996 18.4612C22.5913 19.1741 22.4451 19.9572 21.8807 20.4075C21.4039 20.7887 20.7256 20.8324 20.1382 20.6701C19.5497 20.5077 19.0303 20.1656 18.5213 19.8282C16.4091 18.4301 14.2969 17.0309 12.1848 15.6328C11.6826 15.2999 11.1241 14.8669 11.1298 14.2646C11.1333 13.9019 11.3498 13.5782 11.5709 13.2903C13.4056 10.8972 16.0556 9.25152 18.0249 6.96781C18.3025 6.64651 18.5213 6.06377 18.1401 5.87835C17.9132 5.76779 17.6518 5.91752 17.4456 6.06147C14.8417 7.8707 12.2377 9.67993 9.63381 11.488C8.78388 12.0777 7.89363 12.6857 6.86979 12.8308C5.95421 12.961 5.03173 12.7064 4.14494 12.445C3.40211 12.2262 2.66042 12.0028 1.92104 11.7713C1.52832 11.6492 1.12293 11.518 0.818883 11.2404C0.51484 10.964 0.340931 10.4987 0.524047 10.1302C0.638063 9.89874 0.861512 9.75249 1.0953 9.63387L1.093 9.63616Z" fill="white"/>
</svg>
