<svg width="49" height="49" viewBox="0 0 49 49" fill="none" xmlns="http://www.w3.org/2000/svg">
<path d="M43.5 31.5C44.06 31.5 44.5 31.94 44.5 32.5V34.5C44.5 37.82 41.82 40.5 38.5 40.5C38.5 37.2 35.8 34.5 32.5 34.5C29.2 34.5 26.5 37.2 26.5 40.5H22.5C22.5 37.2 19.8 34.5 16.5 34.5C13.2 34.5 10.5 37.2 10.5 40.5C7.18 40.5 4.5 37.82 4.5 34.5V30.5C4.5 29.4 5.4 28.5 6.5 28.5H25.5C28.26 28.5 30.5 26.26 30.5 23.5V12.5C30.5 11.4 31.4 10.5 32.5 10.5H34.18C35.62 10.5 36.94 11.28 37.66 12.52L38.94 14.76C39.12 15.08 38.88 15.5 38.5 15.5C35.74 15.5 33.5 17.74 33.5 20.5V26.5C33.5 29.26 35.74 31.5 38.5 31.5H43.5Z" fill="#2F5F8A"/>
<path d="M16.5 44.5C18.7091 44.5 20.5 42.7091 20.5 40.5C20.5 38.2909 18.7091 36.5 16.5 36.5C14.2909 36.5 12.5 38.2909 12.5 40.5C12.5 42.7091 14.2909 44.5 16.5 44.5Z" fill="#2F5F8A"/>
<path d="M32.5 44.5C34.7091 44.5 36.5 42.7091 36.5 40.5C36.5 38.2909 34.7091 36.5 32.5 36.5C30.2909 36.5 28.5 38.2909 28.5 40.5C28.5 42.7091 30.2909 44.5 32.5 44.5Z" fill="#2F5F8A"/>
<path d="M44.5 25.56V28.5H38.5C37.4 28.5 36.5 27.6 36.5 26.5V20.5C36.5 19.4 37.4 18.5 38.5 18.5H41.08L43.98 23.58C44.32 24.18 44.5 24.86 44.5 25.56Z" fill="#2F5F8A"/>
<path d="M26.66 4.5H11.88C7.8 4.5 4.5 7.8 4.5 11.88V24.64C4.5 25.74 5.4 26.64 6.5 26.64H24.8C26.84 26.64 28.5 24.98 28.5 22.94V6.34C28.5 5.32 27.68 4.5 26.66 4.5ZM20.64 14.64L16.46 18.68C16.16 18.96 15.78 19.1 15.42 19.1C15.04 19.1 14.66 18.96 14.38 18.68L12.36 16.76C11.76 16.18 11.74 15.22 12.32 14.62C12.88 14.02 13.84 14.02 14.44 14.58L15.42 15.52L18.56 12.48C19.16 11.9 20.1 11.92 20.68 12.52C21.26 13.12 21.24 14.06 20.64 14.64Z" fill="#2F5F8A"/>
</svg>
