<svg width="27" height="27" viewBox="0 0 27 27" fill="none" xmlns="http://www.w3.org/2000/svg">
<path d="M17.7152 19.4557C12.5339 19.4546 8.31756 15.2384 8.31641 10.0583C8.31871 8.74547 9.3863 7.67676 10.6981 7.67676C10.8328 7.67676 10.9664 7.68827 11.0931 7.7113C11.3741 7.75736 11.6401 7.85296 11.8866 7.99577C11.9223 8.01649 11.9465 8.05104 11.9523 8.09135L12.4993 11.5428C12.5062 11.5831 12.4935 11.6234 12.467 11.6534C12.1642 11.9885 11.7784 12.2292 11.3499 12.3501L11.1438 12.4089L11.2221 12.6092C11.9292 14.407 13.3665 15.8454 15.1654 16.5525L15.3658 16.6308L15.4234 16.4235C15.5443 15.9939 15.785 15.6081 16.1202 15.3064C16.1443 15.2845 16.1766 15.2718 16.21 15.2718C16.2169 15.2718 16.225 15.2718 16.2319 15.2741L19.6823 15.8212C19.7237 15.8281 19.7572 15.8511 19.779 15.8868C19.9207 16.1333 20.0163 16.4004 20.0635 16.6803C20.0854 16.8058 20.0969 16.9371 20.0969 17.0753C20.0969 18.387 19.0282 19.4546 17.7152 19.4569V19.4557Z" fill="white"/>
<path d="M26.9036 12.3987C26.6237 9.24087 25.1772 6.31223 22.8301 4.1529C20.4692 1.97975 17.4046 0.783203 14.2006 0.783203C7.16846 0.783203 1.44694 6.50457 1.44694 13.5365C1.44694 15.8962 2.09762 18.196 3.32991 20.1987L0.582031 26.2829L9.38313 25.3454C10.9137 25.9719 12.5341 26.2898 14.2006 26.2898C14.6394 26.2898 15.0885 26.2668 15.5388 26.2207C15.9362 26.1781 16.337 26.1159 16.732 26.0364C22.6216 24.8468 26.9209 19.6195 26.9543 13.6044V13.5365C26.9543 13.153 26.937 12.7707 26.9024 12.3998L26.9036 12.3987ZM9.72056 22.6748L4.8513 23.193L6.30585 19.9719L6.01563 19.5815C5.99375 19.5527 5.97301 19.5239 5.94882 19.4916C4.68659 17.7492 4.01977 15.6901 4.01977 13.5353C4.01977 7.92109 8.58733 3.35482 14.2006 3.35482C19.4603 3.35482 23.9173 7.45812 24.3468 12.6958C24.3699 12.9768 24.3814 13.259 24.3814 13.5365C24.3814 13.616 24.3802 13.6943 24.3779 13.7772C24.2697 18.4736 20.9886 22.4617 16.3991 23.4775C16.049 23.5558 15.6897 23.6145 15.3315 23.6537C14.9596 23.6963 14.5783 23.717 14.1994 23.717C12.8508 23.717 11.5402 23.4556 10.301 22.9396C10.164 22.8844 10.0292 22.8256 9.90253 22.7646L9.71828 22.6759L9.72056 22.6748Z" fill="white"/>
</svg>
